<svg xmlns="http://www.w3.org/2000/svg" xmlns:xlink="http://www.w3.org/1999/xlink" width="3048pt" height="476pt" viewBox="0.00 0.00 3048.00 476.00">
<g id="graph0" class="graph" transform="scale(1 1) rotate(0) translate(4 472)">
<polygon fill="white" stroke="none" points="-4,4 -4,-472 3043.84,-472 3043.84,4 -4,4"/>
<!-- N140737285882136 -->
<g id="node1" class="node">
<title>N140737285882136</title>
<ellipse fill="none" stroke="black" cx="644.51" cy="-450" rx="44.29" ry="18"/>
<text xml:space="preserve" text-anchor="middle" x="644.51" y="-445.8" font-family="Times,serif" font-size="14.00">Program</text>
</g>
<!-- N105868518581840 -->
<g id="node2" class="node">
<title>N105868518581840</title>
<ellipse fill="none" stroke="black" cx="644.51" cy="-378" rx="33.04" ry="18"/>
<text xml:space="preserve" text-anchor="middle" x="644.51" y="-373.8" font-family="Times,serif" font-size="14.00">Stmts</text>
</g>
<!-- N140737285882136&#45;&#45;N105868518581840 -->
<g id="edge1" class="edge">
<title>N140737285882136--N105868518581840</title>
<path fill="none" stroke="black" d="M644.51,-431.7C644.51,-420.85 644.51,-406.92 644.51,-396.1"/>
</g>
<!-- N105868518581728 -->
<g id="node3" class="node">
<title>N105868518581728</title>
<ellipse fill="none" stroke="black" cx="106.51" cy="-306" rx="106.51" ry="18"/>
<text xml:space="preserve" text-anchor="middle" x="106.51" y="-301.8" font-family="Times,serif" font-size="14.00">DeclVar string: Nome_1</text>
</g>
<!-- N105868518581840&#45;&#45;N105868518581728 -->
<g id="edge2" class="edge">
<title>N105868518581840--N105868518581728</title>
<path fill="none" stroke="black" d="M612.37,-373.22C541.66,-364.85 367.25,-343.9 221.51,-324 209.41,-322.35 196.61,-320.53 184.11,-318.71"/>
</g>
<!-- N105868518582112 -->
<g id="node4" class="node">
<title>N105868518582112</title>
<ellipse fill="none" stroke="black" cx="337.51" cy="-306" rx="106.51" ry="18"/>
<text xml:space="preserve" text-anchor="middle" x="337.51" y="-301.8" font-family="Times,serif" font-size="14.00">DeclVar string: Nome_2</text>
</g>
<!-- N105868518581840&#45;&#45;N105868518582112 -->
<g id="edge3" class="edge">
<title>N105868518581840--N105868518582112</title>
<path fill="none" stroke="black" d="M614.23,-370.1C564.46,-358.75 464.39,-335.93 399.22,-321.07"/>
</g>
<!-- N105868518582640 -->
<g id="node5" class="node">
<title>N105868518582640</title>
<ellipse fill="none" stroke="black" cx="495.51" cy="-306" rx="33.04" ry="18"/>
<text xml:space="preserve" text-anchor="middle" x="495.51" y="-301.8" font-family="Times,serif" font-size="14.00">Show</text>
</g>
<!-- N105868518581840&#45;&#45;N105868518582640 -->
<g id="edge4" class="edge">
<title>N105868518581840--N105868518582640</title>
<path fill="none" stroke="black" d="M619.9,-365.44C592.13,-352.39 547.24,-331.3 519.65,-318.34"/>
</g>
<!-- N105868518583728 -->
<g id="node12" class="node">
<title>N105868518583728</title>
<ellipse fill="none" stroke="black" cx="793.51" cy="-306" rx="30.88" ry="18"/>
<text xml:space="preserve" text-anchor="middle" x="793.51" y="-301.8" font-family="Times,serif" font-size="14.00">Read</text>
</g>
<!-- N105868518581840&#45;&#45;N105868518583728 -->
<g id="edge11" class="edge">
<title>N105868518581840--N105868518583728</title>
<path fill="none" stroke="black" d="M669.11,-365.44C697.05,-352.32 742.31,-331.05 769.85,-318.11"/>
</g>
<!-- N105868518587200 -->
<g id="node15" class="node">
<title>N105868518587200</title>
<ellipse fill="none" stroke="black" cx="1275.51" cy="-306" rx="27" ry="18"/>
<text xml:space="preserve" text-anchor="middle" x="1275.51" y="-301.8" font-family="Times,serif" font-size="14.00">IF</text>
</g>
<!-- N105868518581840&#45;&#45;N105868518587200 -->
<g id="edge14" class="edge">
<title>N105868518581840--N105868518587200</title>
<path fill="none" stroke="black" d="M676.67,-373.43C786.79,-361.22 1147.53,-321.2 1248.84,-309.96"/>
</g>
<!-- N105868518587792 -->
<g id="node41" class="node">
<title>N105868518587792</title>
<ellipse fill="none" stroke="black" cx="1550.51" cy="-306" rx="33.04" ry="18"/>
<text xml:space="preserve" text-anchor="middle" x="1550.51" y="-301.8" font-family="Times,serif" font-size="14.00">Show</text>
</g>
<!-- N105868518581840&#45;&#45;N105868518587792 -->
<g id="edge40" class="edge">
<title>N105868518581840--N105868518587792</title>
<path fill="none" stroke="black" d="M677.29,-374.47C818.78,-363.54 1376.37,-320.45 1517.77,-309.53"/>
</g>
<!-- N105868518582256 -->
<g id="node6" class="node">
<title>N105868518582256</title>
<ellipse fill="none" stroke="black" cx="176.51" cy="-234" rx="33.02" ry="18"/>
<text xml:space="preserve" text-anchor="middle" x="176.51" y="-229.8" font-family="Times,serif" font-size="14.00">Insira</text>
</g>
<!-- N105868518582640&#45;&#45;N105868518582256 -->
<g id="edge5" class="edge">
<title>N105868518582640--N105868518582256</title>
<path fill="none" stroke="black" d="M470.52,-293.78C465,-291.61 459.12,-289.54 453.51,-288 351.62,-259.99 320.39,-280.01 218.51,-252 212.89,-250.46 207.02,-248.39 201.5,-246.22"/>
</g>
<!-- N105868518582448 -->
<g id="node7" class="node">
<title>N105868518582448</title>
<ellipse fill="none" stroke="black" cx="254.51" cy="-234" rx="27" ry="18"/>
<text xml:space="preserve" text-anchor="middle" x="254.51" y="-229.8" font-family="Times,serif" font-size="14.00">os</text>
</g>
<!-- N105868518582640&#45;&#45;N105868518582448 -->
<g id="edge6" class="edge">
<title>N105868518582640--N105868518582448</title>
<path fill="none" stroke="black" d="M470.44,-294.06C464.92,-291.87 459.07,-289.73 453.51,-288 382.65,-266.01 360.71,-275.99 290.51,-252 285.54,-250.3 280.34,-248.11 275.5,-245.88"/>
</g>
<!-- N105868518582560 -->
<g id="node8" class="node">
<title>N105868518582560</title>
<ellipse fill="none" stroke="black" cx="335.51" cy="-234" rx="36.25" ry="18"/>
<text xml:space="preserve" text-anchor="middle" x="335.51" y="-229.8" font-family="Times,serif" font-size="14.00">nomes</text>
</g>
<!-- N105868518582640&#45;&#45;N105868518582560 -->
<g id="edge7" class="edge">
<title>N105868518582640--N105868518582560</title>
<path fill="none" stroke="black" d="M470.15,-293.91C440.64,-280.99 392.1,-259.76 362.07,-246.62"/>
</g>
<!-- N105868518582688 -->
<g id="node9" class="node">
<title>N105868518582688</title>
<ellipse fill="none" stroke="black" cx="416.51" cy="-234" rx="27" ry="18"/>
<text xml:space="preserve" text-anchor="middle" x="416.51" y="-229.8" font-family="Times,serif" font-size="14.00">a</text>
</g>
<!-- N105868518582640&#45;&#45;N105868518582688 -->
<g id="edge8" class="edge">
<title>N105868518582640--N105868518582688</title>
<path fill="none" stroke="black" d="M478.75,-290.15C464.98,-277.95 445.62,-260.8 432.16,-248.87"/>
</g>
<!-- N105868518582800 -->
<g id="node10" class="node">
<title>N105868518582800</title>
<ellipse fill="none" stroke="black" cx="495.51" cy="-234" rx="34.09" ry="18"/>
<text xml:space="preserve" text-anchor="middle" x="495.51" y="-229.8" font-family="Times,serif" font-size="14.00">serem</text>
</g>
<!-- N105868518582640&#45;&#45;N105868518582800 -->
<g id="edge9" class="edge">
<title>N105868518582640--N105868518582800</title>
<path fill="none" stroke="black" d="M495.51,-287.7C495.51,-276.85 495.51,-262.92 495.51,-252.1"/>
</g>
<!-- N105868518582992 -->
<g id="node11" class="node">
<title>N105868518582992</title>
<ellipse fill="none" stroke="black" cx="605.51" cy="-234" rx="57.69" ry="18"/>
<text xml:space="preserve" text-anchor="middle" x="605.51" y="-229.8" font-family="Times,serif" font-size="14.00">comparados</text>
</g>
<!-- N105868518582640&#45;&#45;N105868518582992 -->
<g id="edge10" class="edge">
<title>N105868518582640--N105868518582992</title>
<path fill="none" stroke="black" d="M516.46,-291.67C534.78,-280.01 561.43,-263.05 580.79,-250.73"/>
</g>
<!-- N105868518583344 -->
<g id="node13" class="node">
<title>N105868518583344</title>
<ellipse fill="none" stroke="black" cx="793.51" cy="-234" rx="111.87" ry="18"/>
<text xml:space="preserve" text-anchor="middle" x="793.51" y="-229.8" font-family="Times,serif" font-size="14.00">ReadVar (string) Nome_1</text>
</g>
<!-- N105868518583728&#45;&#45;N105868518583344 -->
<g id="edge12" class="edge">
<title>N105868518583728--N105868518583344</title>
<path fill="none" stroke="black" d="M793.51,-287.7C793.51,-276.85 793.51,-262.92 793.51,-252.1"/>
</g>
<!-- N105868518583584 -->
<g id="node14" class="node">
<title>N105868518583584</title>
<ellipse fill="none" stroke="black" cx="1035.51" cy="-234" rx="111.87" ry="18"/>
<text xml:space="preserve" text-anchor="middle" x="1035.51" y="-229.8" font-family="Times,serif" font-size="14.00">ReadVar (string) Nome_2</text>
</g>
<!-- N105868518583728&#45;&#45;N105868518583584 -->
<g id="edge13" class="edge">
<title>N105868518583728--N105868518583584</title>
<path fill="none" stroke="black" d="M820.8,-297.11C859.98,-285.77 932.95,-264.67 982.85,-250.23"/>
</g>
<!-- N105868518587248 -->
<g id="node16" class="node">
<title>N105868518587248</title>
<ellipse fill="none" stroke="black" cx="1215.51" cy="-234" rx="49.67" ry="18"/>
<text xml:space="preserve" text-anchor="middle" x="1215.51" y="-229.8" font-family="Times,serif" font-size="14.00">Condition</text>
</g>
<!-- N105868518587200&#45;&#45;N105868518587248 -->
<g id="edge15" class="edge">
<title>N105868518587200--N105868518587248</title>
<path fill="none" stroke="black" d="M1262.49,-289.81C1252.84,-278.55 1239.69,-263.22 1229.76,-251.63"/>
</g>
<!-- N105868518587328 -->
<g id="node20" class="node">
<title>N105868518587328</title>
<ellipse fill="none" stroke="black" cx="1335.51" cy="-234" rx="52.33" ry="18"/>
<text xml:space="preserve" text-anchor="middle" x="1335.51" y="-229.8" font-family="Times,serif" font-size="14.00">TrueBlock</text>
</g>
<!-- N105868518587200&#45;&#45;N105868518587328 -->
<g id="edge19" class="edge">
<title>N105868518587200--N105868518587328</title>
<path fill="none" stroke="black" d="M1288.53,-289.81C1298.18,-278.55 1311.32,-263.22 1321.25,-251.63"/>
</g>
<!-- N105868518587440 -->
<g id="node30" class="node">
<title>N105868518587440</title>
<ellipse fill="none" stroke="black" cx="1456.51" cy="-234" rx="50.73" ry="18"/>
<text xml:space="preserve" text-anchor="middle" x="1456.51" y="-229.8" font-family="Times,serif" font-size="14.00">ElseBlock</text>
</g>
<!-- N105868518587200&#45;&#45;N105868518587440 -->
<g id="edge29" class="edge">
<title>N105868518587200--N105868518587440</title>
<path fill="none" stroke="black" d="M1298.43,-296.13C1329.92,-283.96 1386.76,-261.97 1423.01,-247.95"/>
</g>
<!-- N105868518584448 -->
<g id="node17" class="node">
<title>N105868518584448</title>
<ellipse fill="none" stroke="black" cx="1122.51" cy="-162" rx="97.12" ry="18"/>
<text xml:space="preserve" text-anchor="middle" x="1122.51" y="-157.8" font-family="Times,serif" font-size="14.00">Compare [IGUAL_A]</text>
</g>
<!-- N105868518587248&#45;&#45;N105868518584448 -->
<g id="edge16" class="edge">
<title>N105868518587248--N105868518584448</title>
<path fill="none" stroke="black" d="M1194.87,-217.46C1180.1,-206.35 1160.22,-191.39 1145.04,-179.96"/>
</g>
<!-- N105868518583968 -->
<g id="node18" class="node">
<title>N105868518583968</title>
<ellipse fill="none" stroke="black" cx="779.51" cy="-90" rx="162.33" ry="18"/>
<text xml:space="preserve" text-anchor="middle" x="779.51" y="-85.8" font-family="Times,serif" font-size="14.00">LoadVar Nome_1 | changedByRead(1)</text>
</g>
<!-- N105868518584448&#45;&#45;N105868518583968 -->
<g id="edge17" class="edge">
<title>N105868518584448--N105868518583968</title>
<path fill="none" stroke="black" d="M1058.8,-148C1001.06,-136.22 915.92,-118.84 854.84,-106.37"/>
</g>
<!-- N105868518584304 -->
<g id="node19" class="node">
<title>N105868518584304</title>
<ellipse fill="none" stroke="black" cx="1122.51" cy="-90" rx="162.33" ry="18"/>
<text xml:space="preserve" text-anchor="middle" x="1122.51" y="-85.8" font-family="Times,serif" font-size="14.00">LoadVar Nome_2 | changedByRead(1)</text>
</g>
<!-- N105868518584448&#45;&#45;N105868518584304 -->
<g id="edge18" class="edge">
<title>N105868518584448--N105868518584304</title>
<path fill="none" stroke="black" d="M1122.51,-143.7C1122.51,-132.85 1122.51,-118.92 1122.51,-108.1"/>
</g>
<!-- N105868518585712 -->
<g id="node21" class="node">
<title>N105868518585712</title>
<ellipse fill="none" stroke="black" cx="1335.51" cy="-162" rx="33.04" ry="18"/>
<text xml:space="preserve" text-anchor="middle" x="1335.51" y="-157.8" font-family="Times,serif" font-size="14.00">Stmts</text>
</g>
<!-- N105868518587328&#45;&#45;N105868518585712 -->
<g id="edge20" class="edge">
<title>N105868518587328--N105868518585712</title>
<path fill="none" stroke="black" d="M1335.51,-215.7C1335.51,-204.85 1335.51,-190.92 1335.51,-180.1"/>
</g>
<!-- N105868518585040 -->
<g id="node22" class="node">
<title>N105868518585040</title>
<ellipse fill="none" stroke="black" cx="1335.51" cy="-90" rx="33.04" ry="18"/>
<text xml:space="preserve" text-anchor="middle" x="1335.51" y="-85.8" font-family="Times,serif" font-size="14.00">Show</text>
</g>
<!-- N105868518585712&#45;&#45;N105868518585040 -->
<g id="edge21" class="edge">
<title>N105868518585712--N105868518585040</title>
<path fill="none" stroke="black" d="M1335.51,-143.7C1335.51,-132.85 1335.51,-118.92 1335.51,-108.1"/>
</g>
<!-- N105868518584592 -->
<g id="node23" class="node">
<title>N105868518584592</title>
<ellipse fill="none" stroke="black" cx="755.51" cy="-18" rx="27" ry="18"/>
<text xml:space="preserve" text-anchor="middle" x="755.51" y="-13.8" font-family="Times,serif" font-size="14.00">O</text>
</g>
<!-- N105868518585040&#45;&#45;N105868518584592 -->
<g id="edge22" class="edge">
<title>N105868518585040--N105868518584592</title>
<path fill="none" stroke="black" d="M1311.05,-77.61C1305.4,-75.4 1299.33,-73.35 1293.51,-72 1075.62,-21.42 1007.88,-92.72 791.51,-36 786.29,-34.63 780.91,-32.52 775.95,-30.24"/>
</g>
<!-- N105868518584784 -->
<g id="node24" class="node">
<title>N105868518584784</title>
<ellipse fill="none" stroke="black" cx="832.51" cy="-18" rx="32.49" ry="18"/>
<text xml:space="preserve" text-anchor="middle" x="832.51" y="-13.8" font-family="Times,serif" font-size="14.00">nome</text>
</g>
<!-- N105868518585040&#45;&#45;N105868518584784 -->
<g id="edge23" class="edge">
<title>N105868518585040--N105868518584784</title>
<path fill="none" stroke="black" d="M1311.04,-77.67C1305.38,-75.46 1299.32,-73.39 1293.51,-72 1111.74,-28.45 1056.27,-79.55 874.51,-36 868.69,-34.61 862.63,-32.54 856.98,-30.33"/>
</g>
<!-- N105868518584896 -->
<g id="node25" class="node">
<title>N105868518584896</title>
<ellipse fill="none" stroke="black" cx="1045.51" cy="-18" rx="162.33" ry="18"/>
<text xml:space="preserve" text-anchor="middle" x="1045.51" y="-13.8" font-family="Times,serif" font-size="14.00">LoadVar Nome_1 | changedByRead(1)</text>
</g>
<!-- N105868518585040&#45;&#45;N105868518584896 -->
<g id="edge24" class="edge">
<title>N105868518585040--N105868518584896</title>
<path fill="none" stroke="black" d="M1310.45,-78.03C1304.93,-75.85 1299.07,-73.71 1293.51,-72 1240.68,-55.8 1180.05,-42.75 1131.96,-33.65"/>
</g>
<!-- N105868518585088 -->
<g id="node26" class="node">
<title>N105868518585088</title>
<ellipse fill="none" stroke="black" cx="1284.51" cy="-18" rx="58.23" ry="18"/>
<text xml:space="preserve" text-anchor="middle" x="1284.51" y="-13.8" font-family="Times,serif" font-size="14.00">corresponde</text>
</g>
<!-- N105868518585040&#45;&#45;N105868518585088 -->
<g id="edge25" class="edge">
<title>N105868518585040--N105868518585088</title>
<path fill="none" stroke="black" d="M1323.68,-72.76C1315.56,-61.62 1304.81,-46.87 1296.63,-35.63"/>
</g>
<!-- N105868518585200 -->
<g id="node27" class="node">
<title>N105868518585200</title>
<ellipse fill="none" stroke="black" cx="1387.51" cy="-18" rx="27" ry="18"/>
<text xml:space="preserve" text-anchor="middle" x="1387.51" y="-13.8" font-family="Times,serif" font-size="14.00">ao</text>
</g>
<!-- N105868518585040&#45;&#45;N105868518585200 -->
<g id="edge26" class="edge">
<title>N105868518585040--N105868518585200</title>
<path fill="none" stroke="black" d="M1347.57,-72.76C1356.09,-61.29 1367.45,-46.01 1375.87,-34.67"/>
</g>
<!-- N105868518585392 -->
<g id="node28" class="node">
<title>N105868518585392</title>
<ellipse fill="none" stroke="black" cx="1464.51" cy="-18" rx="32.49" ry="18"/>
<text xml:space="preserve" text-anchor="middle" x="1464.51" y="-13.8" font-family="Times,serif" font-size="14.00">nome</text>
</g>
<!-- N105868518585040&#45;&#45;N105868518585392 -->
<g id="edge27" class="edge">
<title>N105868518585040--N105868518585392</title>
<path fill="none" stroke="black" d="M1358.27,-76.65C1381.85,-63.85 1418.47,-43.98 1441.97,-31.23"/>
</g>
<!-- N105868518585504 -->
<g id="node29" class="node">
<title>N105868518585504</title>
<ellipse fill="none" stroke="black" cx="1677.51" cy="-18" rx="162.33" ry="18"/>
<text xml:space="preserve" text-anchor="middle" x="1677.51" y="-13.8" font-family="Times,serif" font-size="14.00">LoadVar Nome_2 | changedByRead(1)</text>
</g>
<!-- N105868518585040&#45;&#45;N105868518585504 -->
<g id="edge28" class="edge">
<title>N105868518585040--N105868518585504</title>
<path fill="none" stroke="black" d="M1366.16,-82.73C1418.95,-71.92 1528.49,-49.5 1602.51,-34.35"/>
</g>
<!-- N105868518587072 -->
<g id="node31" class="node">
<title>N105868518587072</title>
<ellipse fill="none" stroke="black" cx="1944.51" cy="-162" rx="33.04" ry="18"/>
<text xml:space="preserve" text-anchor="middle" x="1944.51" y="-157.8" font-family="Times,serif" font-size="14.00">Stmts</text>
</g>
<!-- N105868518587440&#45;&#45;N105868518587072 -->
<g id="edge30" class="edge">
<title>N105868518587440--N105868518587072</title>
<path fill="none" stroke="black" d="M1493.74,-221.5C1501.23,-219.46 1509.08,-217.5 1516.51,-216 1662.36,-186.49 1839.72,-170.85 1911.75,-165.34"/>
</g>
<!-- N105868518586288 -->
<g id="node32" class="node">
<title>N105868518586288</title>
<ellipse fill="none" stroke="black" cx="2381.51" cy="-90" rx="33.04" ry="18"/>
<text xml:space="preserve" text-anchor="middle" x="2381.51" y="-85.8" font-family="Times,serif" font-size="14.00">Show</text>
</g>
<!-- N105868518587072&#45;&#45;N105868518586288 -->
<g id="edge31" class="edge">
<title>N105868518587072--N105868518586288</title>
<path fill="none" stroke="black" d="M1975.94,-155.97C2056.47,-143.07 2269.53,-108.94 2350.07,-96.04"/>
</g>
<!-- N105868518585840 -->
<g id="node33" class="node">
<title>N105868518585840</title>
<ellipse fill="none" stroke="black" cx="1884.51" cy="-18" rx="27" ry="18"/>
<text xml:space="preserve" text-anchor="middle" x="1884.51" y="-13.8" font-family="Times,serif" font-size="14.00">O</text>
</g>
<!-- N105868518586288&#45;&#45;N105868518585840 -->
<g id="edge32" class="edge">
<title>N105868518586288--N105868518585840</title>
<path fill="none" stroke="black" d="M2348.09,-88.86C2271.13,-87.74 2076.03,-80.36 1920.51,-36 1915.32,-34.52 1909.96,-32.37 1905,-30.08"/>
</g>
<!-- N105868518586032 -->
<g id="node34" class="node">
<title>N105868518586032</title>
<ellipse fill="none" stroke="black" cx="1961.51" cy="-18" rx="32.49" ry="18"/>
<text xml:space="preserve" text-anchor="middle" x="1961.51" y="-13.8" font-family="Times,serif" font-size="14.00">nome</text>
</g>
<!-- N105868518586288&#45;&#45;N105868518586032 -->
<g id="edge33" class="edge">
<title>N105868518586288--N105868518586032</title>
<path fill="none" stroke="black" d="M2348.61,-87.11C2282.31,-82.7 2128.32,-69.46 2003.51,-36 1997.73,-34.45 1991.69,-32.32 1986.04,-30.1"/>
</g>
<!-- N105868518586144 -->
<g id="node35" class="node">
<title>N105868518586144</title>
<ellipse fill="none" stroke="black" cx="2174.51" cy="-18" rx="162.33" ry="18"/>
<text xml:space="preserve" text-anchor="middle" x="2174.51" y="-13.8" font-family="Times,serif" font-size="14.00">LoadVar Nome_1 | changedByRead(1)</text>
</g>
<!-- N105868518586288&#45;&#45;N105868518586144 -->
<g id="edge34" class="edge">
<title>N105868518586288--N105868518586144</title>
<path fill="none" stroke="black" d="M2354.02,-79.7C2320.81,-68.47 2264.32,-49.37 2223.57,-35.59"/>
</g>
<!-- N105868518586336 -->
<g id="node36" class="node">
<title>N105868518586336</title>
<ellipse fill="none" stroke="black" cx="2381.51" cy="-18" rx="27" ry="18"/>
<text xml:space="preserve" text-anchor="middle" x="2381.51" y="-13.8" font-family="Times,serif" font-size="14.00">nao</text>
</g>
<!-- N105868518586288&#45;&#45;N105868518586336 -->
<g id="edge35" class="edge">
<title>N105868518586288--N105868518586336</title>
<path fill="none" stroke="black" d="M2381.51,-71.7C2381.51,-60.85 2381.51,-46.92 2381.51,-36.1"/>
</g>
<!-- N105868518586448 -->
<g id="node37" class="node">
<title>N105868518586448</title>
<ellipse fill="none" stroke="black" cx="2484.51" cy="-18" rx="58.23" ry="18"/>
<text xml:space="preserve" text-anchor="middle" x="2484.51" y="-13.8" font-family="Times,serif" font-size="14.00">corresponde</text>
</g>
<!-- N105868518586288&#45;&#45;N105868518586448 -->
<g id="edge36" class="edge">
<title>N105868518586288--N105868518586448</title>
<path fill="none" stroke="black" d="M2401.37,-75.5C2418.44,-63.9 2443.08,-47.16 2461.1,-34.91"/>
</g>
<!-- N105868518586640 -->
<g id="node38" class="node">
<title>N105868518586640</title>
<ellipse fill="none" stroke="black" cx="2587.51" cy="-18" rx="27" ry="18"/>
<text xml:space="preserve" text-anchor="middle" x="2587.51" y="-13.8" font-family="Times,serif" font-size="14.00">ao</text>
</g>
<!-- N105868518586288&#45;&#45;N105868518586640 -->
<g id="edge37" class="edge">
<title>N105868518586288--N105868518586640</title>
<path fill="none" stroke="black" d="M2410.81,-81.2C2445.03,-71.79 2503.12,-54.86 2551.51,-36 2556.4,-34.09 2561.56,-31.82 2566.4,-29.57"/>
</g>
<!-- N105868518586752 -->
<g id="node39" class="node">
<title>N105868518586752</title>
<ellipse fill="none" stroke="black" cx="2664.51" cy="-18" rx="32.49" ry="18"/>
<text xml:space="preserve" text-anchor="middle" x="2664.51" y="-13.8" font-family="Times,serif" font-size="14.00">nome</text>
</g>
<!-- N105868518586288&#45;&#45;N105868518586752 -->
<g id="edge38" class="edge">
<title>N105868518586288--N105868518586752</title>
<path fill="none" stroke="black" d="M2412.91,-83.96C2459.51,-76.07 2549.44,-59.26 2623.51,-36 2628.95,-34.29 2634.67,-32.15 2640.05,-29.97"/>
</g>
<!-- N105868518586864 -->
<g id="node40" class="node">
<title>N105868518586864</title>
<ellipse fill="none" stroke="black" cx="2877.51" cy="-18" rx="162.33" ry="18"/>
<text xml:space="preserve" text-anchor="middle" x="2877.51" y="-13.8" font-family="Times,serif" font-size="14.00">LoadVar Nome_2 | changedByRead(1)</text>
</g>
<!-- N105868518586288&#45;&#45;N105868518586864 -->
<g id="edge39" class="edge">
<title>N105868518586288--N105868518586864</title>
<path fill="none" stroke="black" d="M2413.29,-84.51C2485.93,-74.26 2666.58,-48.77 2779.9,-32.77"/>
</g>
<!-- N105868518587616 -->
<g id="node42" class="node">
<title>N105868518587616</title>
<ellipse fill="none" stroke="black" cx="1687.51" cy="-234" rx="162.33" ry="18"/>
<text xml:space="preserve" text-anchor="middle" x="1687.51" y="-229.8" font-family="Times,serif" font-size="14.00">LoadVar Nome_1 | changedByRead(1)</text>
</g>
<!-- N105868518587792&#45;&#45;N105868518587616 -->
<g id="edge41" class="edge">
<title>N105868518587792--N105868518587616</title>
<path fill="none" stroke="black" d="M1574.06,-292.97C1596.17,-281.67 1629.46,-264.66 1654.27,-251.98"/>
</g>
</g>
</svg>