<svg xmlns="http://www.w3.org/2000/svg" xmlns:xlink="http://www.w3.org/1999/xlink" width="1650pt" height="332pt" viewBox="0.00 0.00 1650.00 332.00">
<g id="graph0" class="graph" transform="scale(1 1) rotate(0) translate(4 328)">
<polygon fill="white" stroke="none" points="-4,4 -4,-328 1645.7,-328 1645.7,4 -4,4"/>
<!-- N140722732647480 -->
<g id="node1" class="node">
<title>N140722732647480</title>
<ellipse fill="none" stroke="black" cx="825.8" cy="-306" rx="44.29" ry="18"/>
<text xml:space="preserve" text-anchor="middle" x="825.8" y="-301.8" font-family="Times,serif" font-size="14.00">Program</text>
</g>
<!-- N96096736675328 -->
<g id="node2" class="node">
<title>N96096736675328</title>
<ellipse fill="none" stroke="black" cx="825.8" cy="-234" rx="33.04" ry="18"/>
<text xml:space="preserve" text-anchor="middle" x="825.8" y="-229.8" font-family="Times,serif" font-size="14.00">Stmts</text>
</g>
<!-- N140722732647480&#45;&#45;N96096736675328 -->
<g id="edge1" class="edge">
<title>N140722732647480--N96096736675328</title>
<path fill="none" stroke="black" d="M825.8,-287.7C825.8,-276.85 825.8,-262.92 825.8,-252.1"/>
</g>
<!-- N96096736675216 -->
<g id="node3" class="node">
<title>N96096736675216</title>
<ellipse fill="none" stroke="black" cx="88.8" cy="-162" rx="88.8" ry="18"/>
<text xml:space="preserve" text-anchor="middle" x="88.8" y="-157.8" font-family="Times,serif" font-size="14.00">DeclVar int: var_int</text>
</g>
<!-- N96096736675328&#45;&#45;N96096736675216 -->
<g id="edge2" class="edge">
<title>N96096736675328--N96096736675216</title>
<path fill="none" stroke="black" d="M792.77,-231.3C698.11,-226.21 417.85,-209.56 186.8,-180 175.67,-178.58 163.87,-176.78 152.46,-174.89"/>
</g>
<!-- N96096736675440 -->
<g id="node4" class="node">
<title>N96096736675440</title>
<ellipse fill="none" stroke="black" cx="284.8" cy="-162" rx="88.8" ry="18"/>
<text xml:space="preserve" text-anchor="middle" x="284.8" y="-157.8" font-family="Times,serif" font-size="14.00">DeclVar int: var_int</text>
</g>
<!-- N96096736675328&#45;&#45;N96096736675440 -->
<g id="edge3" class="edge">
<title>N96096736675328--N96096736675440</title>
<path fill="none" stroke="black" d="M793.21,-229.7C719.79,-222.12 535.89,-202.42 382.8,-180 372.04,-178.42 360.64,-176.59 349.56,-174.73"/>
</g>
<!-- N96096736675776 -->
<g id="node5" class="node">
<title>N96096736675776</title>
<ellipse fill="none" stroke="black" cx="503.8" cy="-162" rx="112.41" ry="18"/>
<text xml:space="preserve" text-anchor="middle" x="503.8" y="-157.8" font-family="Times,serif" font-size="14.00">DeclVar string: var_string</text>
</g>
<!-- N96096736675328&#45;&#45;N96096736675776 -->
<g id="edge4" class="edge">
<title>N96096736675328--N96096736675776</title>
<path fill="none" stroke="black" d="M795.51,-226.41C743.84,-215.18 637.6,-192.09 568.59,-177.08"/>
</g>
<!-- N96096736676096 -->
<g id="node6" class="node">
<title>N96096736676096</title>
<ellipse fill="none" stroke="black" cx="721.8" cy="-162" rx="87.47" ry="18"/>
<text xml:space="preserve" text-anchor="middle" x="721.8" y="-157.8" font-family="Times,serif" font-size="14.00">StoreVar var_string</text>
</g>
<!-- N96096736675328&#45;&#45;N96096736676096 -->
<g id="edge5" class="edge">
<title>N96096736675328--N96096736676096</title>
<path fill="none" stroke="black" d="M805.75,-219.5C788.87,-208.14 764.65,-191.84 746.56,-179.67"/>
</g>
<!-- N96096736676320 -->
<g id="node8" class="node">
<title>N96096736676320</title>
<ellipse fill="none" stroke="black" cx="929.8" cy="-162" rx="102.75" ry="18"/>
<text xml:space="preserve" text-anchor="middle" x="929.8" y="-157.8" font-family="Times,serif" font-size="14.00">DeclVar bool: var_bool</text>
</g>
<!-- N96096736675328&#45;&#45;N96096736676320 -->
<g id="edge7" class="edge">
<title>N96096736675328--N96096736676320</title>
<path fill="none" stroke="black" d="M845.85,-219.5C862.62,-208.22 886.61,-192.07 904.66,-179.92"/>
</g>
<!-- N96096736676784 -->
<g id="node9" class="node">
<title>N96096736676784</title>
<ellipse fill="none" stroke="black" cx="1132.8" cy="-162" rx="82.64" ry="18"/>
<text xml:space="preserve" text-anchor="middle" x="1132.8" y="-157.8" font-family="Times,serif" font-size="14.00">StoreVar var_bool</text>
</g>
<!-- N96096736675328&#45;&#45;N96096736676784 -->
<g id="edge8" class="edge">
<title>N96096736675328--N96096736676784</title>
<path fill="none" stroke="black" d="M856.08,-226.1C907.43,-214.39 1012.35,-190.46 1077.22,-175.67"/>
</g>
<!-- N96096736676992 -->
<g id="node13" class="node">
<title>N96096736676992</title>
<ellipse fill="none" stroke="black" cx="1339.8" cy="-162" rx="106.77" ry="18"/>
<text xml:space="preserve" text-anchor="middle" x="1339.8" y="-157.8" font-family="Times,serif" font-size="14.00">StoreVar var_nao_existe</text>
</g>
<!-- N96096736675328&#45;&#45;N96096736676992 -->
<g id="edge12" class="edge">
<title>N96096736675328--N96096736676992</title>
<path fill="none" stroke="black" d="M857.89,-228.9C925.68,-220.2 1088.47,-199.13 1224.8,-180 1236.79,-178.32 1249.48,-176.49 1261.88,-174.68"/>
</g>
<!-- N96096736677744 -->
<g id="node15" class="node">
<title>N96096736677744</title>
<ellipse fill="none" stroke="black" cx="1506.8" cy="-162" rx="33.04" ry="18"/>
<text xml:space="preserve" text-anchor="middle" x="1506.8" y="-157.8" font-family="Times,serif" font-size="14.00">Show</text>
</g>
<!-- N96096736675328&#45;&#45;N96096736677744 -->
<g id="edge14" class="edge">
<title>N96096736675328--N96096736677744</title>
<path fill="none" stroke="black" d="M858.99,-232.97C953.39,-232.29 1231.1,-226.21 1455.8,-180 1463.94,-178.33 1472.58,-175.76 1480.39,-173.13"/>
</g>
<!-- N96096736675936 -->
<g id="node7" class="node">
<title>N96096736675936</title>
<ellipse fill="none" stroke="black" cx="721.8" cy="-90" rx="27" ry="18"/>
<text xml:space="preserve" text-anchor="middle" x="721.8" y="-85.8" font-family="Times,serif" font-size="14.00">123</text>
</g>
<!-- N96096736676096&#45;&#45;N96096736675936 -->
<g id="edge6" class="edge">
<title>N96096736676096--N96096736675936</title>
<path fill="none" stroke="black" d="M721.8,-143.7C721.8,-132.85 721.8,-118.92 721.8,-108.1"/>
</g>
<!-- N96096736676592 -->
<g id="node10" class="node">
<title>N96096736676592</title>
<ellipse fill="none" stroke="black" cx="1132.8" cy="-90" rx="27" ry="18"/>
<text xml:space="preserve" text-anchor="middle" x="1132.8" y="-85.8" font-family="Times,serif" font-size="14.00">+</text>
</g>
<!-- N96096736676784&#45;&#45;N96096736676592 -->
<g id="edge9" class="edge">
<title>N96096736676784--N96096736676592</title>
<path fill="none" stroke="black" d="M1132.8,-143.7C1132.8,-132.85 1132.8,-118.92 1132.8,-108.1"/>
</g>
<!-- N96096736675888 -->
<g id="node11" class="node">
<title>N96096736675888</title>
<ellipse fill="none" stroke="black" cx="1096.8" cy="-18" rx="27" ry="18"/>
<text xml:space="preserve" text-anchor="middle" x="1096.8" y="-13.8" font-family="Times,serif" font-size="14.00">10</text>
</g>
<!-- N96096736676592&#45;&#45;N96096736675888 -->
<g id="edge10" class="edge">
<title>N96096736676592--N96096736675888</title>
<path fill="none" stroke="black" d="M1124.45,-72.76C1118.64,-61.46 1110.91,-46.44 1105.11,-35.15"/>
</g>
<!-- N96096736676512 -->
<g id="node12" class="node">
<title>N96096736676512</title>
<ellipse fill="none" stroke="black" cx="1168.8" cy="-18" rx="27" ry="18"/>
<text xml:space="preserve" text-anchor="middle" x="1168.8" y="-13.8" font-family="Times,serif" font-size="14.00">5</text>
</g>
<!-- N96096736676592&#45;&#45;N96096736676512 -->
<g id="edge11" class="edge">
<title>N96096736676592--N96096736676512</title>
<path fill="none" stroke="black" d="M1141.15,-72.76C1146.97,-61.46 1154.69,-46.44 1160.5,-35.15"/>
</g>
<!-- N96096736676864 -->
<g id="node14" class="node">
<title>N96096736676864</title>
<ellipse fill="none" stroke="black" cx="1334.8" cy="-90" rx="27" ry="18"/>
<text xml:space="preserve" text-anchor="middle" x="1334.8" y="-85.8" font-family="Times,serif" font-size="14.00">10</text>
</g>
<!-- N96096736676992&#45;&#45;N96096736676864 -->
<g id="edge13" class="edge">
<title>N96096736676992--N96096736676864</title>
<path fill="none" stroke="black" d="M1338.57,-143.7C1337.79,-132.85 1336.8,-118.92 1336.02,-108.1"/>
</g>
<!-- N96096736677504 -->
<g id="node16" class="node">
<title>N96096736677504</title>
<ellipse fill="none" stroke="black" cx="1510.8" cy="-90" rx="130.89" ry="18"/>
<text xml:space="preserve" text-anchor="middle" x="1510.8" y="-85.8" font-family="Times,serif" font-size="14.00">LoadVar outra_var_nao_existe</text>
</g>
<!-- N96096736677744&#45;&#45;N96096736677504 -->
<g id="edge15" class="edge">
<title>N96096736677744--N96096736677504</title>
<path fill="none" stroke="black" d="M1507.79,-143.7C1508.41,-132.85 1509.21,-118.92 1509.82,-108.1"/>
</g>
</g>
</svg>