<svg xmlns="http://www.w3.org/2000/svg" xmlns:xlink="http://www.w3.org/1999/xlink" width="1599pt" height="332pt" viewBox="0.00 0.00 1599.00 332.00">
<g id="graph0" class="graph" transform="scale(1 1) rotate(0) translate(4 328)">
<polygon fill="white" stroke="none" points="-4,4 -4,-328 1595.39,-328 1595.39,4 -4,4"/>
<!-- N140732768391048 -->
<g id="node1" class="node">
<title>N140732768391048</title>
<ellipse fill="none" stroke="black" cx="824.33" cy="-306" rx="44.29" ry="18"/>
<text xml:space="preserve" text-anchor="middle" x="824.33" y="-301.8" font-family="Times,serif" font-size="14.00">Program</text>
</g>
<!-- N105366027810320 -->
<g id="node2" class="node">
<title>N105366027810320</title>
<ellipse fill="none" stroke="black" cx="824.33" cy="-234" rx="33.04" ry="18"/>
<text xml:space="preserve" text-anchor="middle" x="824.33" y="-229.8" font-family="Times,serif" font-size="14.00">Stmts</text>
</g>
<!-- N140732768391048&#45;&#45;N105366027810320 -->
<g id="edge1" class="edge">
<title>N140732768391048--N105366027810320</title>
<path fill="none" stroke="black" d="M824.33,-287.7C824.33,-276.85 824.33,-262.92 824.33,-252.1"/>
</g>
<!-- N105366027810192 -->
<g id="node3" class="node">
<title>N105366027810192</title>
<ellipse fill="none" stroke="black" cx="111.33" cy="-162" rx="111.33" ry="18"/>
<text xml:space="preserve" text-anchor="middle" x="111.33" y="-157.8" font-family="Times,serif" font-size="14.00">DeclVector int: int_vet]3[</text>
</g>
<!-- N105366027810320&#45;&#45;N105366027810192 -->
<g id="edge2" class="edge">
<title>N105366027810320--N105366027810192</title>
<path fill="none" stroke="black" d="M791.48,-230.66C701.65,-224.14 444.39,-204.6 231.33,-180 218.37,-178.5 204.65,-176.74 191.29,-174.91"/>
</g>
<!-- N105366027811280 -->
<g id="node4" class="node">
<title>N105366027811280</title>
<ellipse fill="none" stroke="black" cx="341.33" cy="-162" rx="100.6" ry="18"/>
<text xml:space="preserve" text-anchor="middle" x="341.33" y="-157.8" font-family="Times,serif" font-size="14.00">StoreVector int_vet ]0[</text>
</g>
<!-- N105366027810320&#45;&#45;N105366027811280 -->
<g id="edge3" class="edge">
<title>N105366027810320--N105366027811280</title>
<path fill="none" stroke="black" d="M792.37,-228.59C727.87,-219.67 577.49,-198.71 451.33,-180 439.67,-178.27 427.32,-176.4 415.27,-174.55"/>
</g>
<!-- N105366027811760 -->
<g id="node6" class="node">
<title>N105366027811760</title>
<ellipse fill="none" stroke="black" cx="525.33" cy="-162" rx="65.48" ry="18"/>
<text xml:space="preserve" text-anchor="middle" x="525.33" y="-157.8" font-family="Times,serif" font-size="14.00">StoreVar num</text>
</g>
<!-- N105366027810320&#45;&#45;N105366027811760 -->
<g id="edge5" class="edge">
<title>N105366027810320--N105366027811760</title>
<path fill="none" stroke="black" d="M794.29,-225.97C742.6,-213.87 636.41,-189.01 574.03,-174.4"/>
</g>
<!-- N105366027812176 -->
<g id="node10" class="node">
<title>N105366027812176</title>
<ellipse fill="none" stroke="black" cx="709.33" cy="-162" rx="100.6" ry="18"/>
<text xml:space="preserve" text-anchor="middle" x="709.33" y="-157.8" font-family="Times,serif" font-size="14.00">StoreVector int_vet ]5[</text>
</g>
<!-- N105366027810320&#45;&#45;N105366027812176 -->
<g id="edge9" class="edge">
<title>N105366027810320--N105366027812176</title>
<path fill="none" stroke="black" d="M802.97,-220C784.26,-208.61 756.97,-192 736.67,-179.64"/>
</g>
<!-- N105366027812320 -->
<g id="node12" class="node">
<title>N105366027812320</title>
<ellipse fill="none" stroke="black" cx="939.33" cy="-162" rx="111.33" ry="18"/>
<text xml:space="preserve" text-anchor="middle" x="939.33" y="-157.8" font-family="Times,serif" font-size="14.00">DeclVector int: int_vet]5[</text>
</g>
<!-- N105366027810320&#45;&#45;N105366027812320 -->
<g id="edge11" class="edge">
<title>N105366027810320--N105366027812320</title>
<path fill="none" stroke="black" d="M845.69,-220C864.26,-208.69 891.31,-192.23 911.56,-179.9"/>
</g>
<!-- N105366027812608 -->
<g id="node13" class="node">
<title>N105366027812608</title>
<ellipse fill="none" stroke="black" cx="1169.33" cy="-162" rx="100.6" ry="18"/>
<text xml:space="preserve" text-anchor="middle" x="1169.33" y="-157.8" font-family="Times,serif" font-size="14.00">StoreVector int_vet ]0[</text>
</g>
<!-- N105366027810320&#45;&#45;N105366027812608 -->
<g id="edge12" class="edge">
<title>N105366027810320--N105366027812608</title>
<path fill="none" stroke="black" d="M854.94,-226.79C910.68,-215.48 1029.84,-191.3 1104.39,-176.18"/>
</g>
<!-- N105366027812896 -->
<g id="node15" class="node">
<title>N105366027812896</title>
<ellipse fill="none" stroke="black" cx="1354.33" cy="-162" rx="66.28" ry="18"/>
<text xml:space="preserve" text-anchor="middle" x="1354.33" y="-157.8" font-family="Times,serif" font-size="14.00">DeclVar int: x</text>
</g>
<!-- N105366027810320&#45;&#45;N105366027812896 -->
<g id="edge14" class="edge">
<title>N105366027810320--N105366027812896</title>
<path fill="none" stroke="black" d="M857.05,-230.4C932.08,-224.17 1122.16,-206.89 1279.33,-180 1288.01,-178.51 1297.2,-176.66 1306.06,-174.74"/>
</g>
<!-- N105366027813408 -->
<g id="node16" class="node">
<title>N105366027813408</title>
<ellipse fill="none" stroke="black" cx="1491.33" cy="-162" rx="53.14" ry="18"/>
<text xml:space="preserve" text-anchor="middle" x="1491.33" y="-157.8" font-family="Times,serif" font-size="14.00">StoreVar x</text>
</g>
<!-- N105366027810320&#45;&#45;N105366027813408 -->
<g id="edge15" class="edge">
<title>N105366027810320--N105366027813408</title>
<path fill="none" stroke="black" d="M857.39,-232.19C948.98,-229.51 1213.46,-218.72 1429.33,-180 1437.02,-178.62 1445.14,-176.72 1452.88,-174.7"/>
</g>
<!-- N105366027810480 -->
<g id="node5" class="node">
<title>N105366027810480</title>
<ellipse fill="none" stroke="black" cx="341.33" cy="-90" rx="52.08" ry="18"/>
<text xml:space="preserve" text-anchor="middle" x="341.33" y="-85.8" font-family="Times,serif" font-size="14.00">10.550000</text>
</g>
<!-- N105366027811280&#45;&#45;N105366027810480 -->
<g id="edge4" class="edge">
<title>N105366027811280--N105366027810480</title>
<path fill="none" stroke="black" d="M341.33,-143.7C341.33,-132.85 341.33,-118.92 341.33,-108.1"/>
</g>
<!-- N105366027811568 -->
<g id="node7" class="node">
<title>N105366027811568</title>
<ellipse fill="none" stroke="black" cx="525.33" cy="-90" rx="27" ry="18"/>
<text xml:space="preserve" text-anchor="middle" x="525.33" y="-85.8" font-family="Times,serif" font-size="14.00">+</text>
</g>
<!-- N105366027811760&#45;&#45;N105366027811568 -->
<g id="edge6" class="edge">
<title>N105366027811760--N105366027811568</title>
<path fill="none" stroke="black" d="M525.33,-143.7C525.33,-132.85 525.33,-118.92 525.33,-108.1"/>
</g>
<!-- N105366027811456 -->
<g id="node8" class="node">
<title>N105366027811456</title>
<ellipse fill="none" stroke="black" cx="479.33" cy="-18" rx="27" ry="18"/>
<text xml:space="preserve" text-anchor="middle" x="479.33" y="-13.8" font-family="Times,serif" font-size="14.00">5</text>
</g>
<!-- N105366027811568&#45;&#45;N105366027811456 -->
<g id="edge7" class="edge">
<title>N105366027811568--N105366027811456</title>
<path fill="none" stroke="black" d="M514.89,-73.12C507.36,-61.66 497.24,-46.26 489.72,-34.82"/>
</g>
<!-- N105366027811504 -->
<g id="node9" class="node">
<title>N105366027811504</title>
<ellipse fill="none" stroke="black" cx="571.33" cy="-18" rx="47.25" ry="18"/>
<text xml:space="preserve" text-anchor="middle" x="571.33" y="-13.8" font-family="Times,serif" font-size="14.00">2.400000</text>
</g>
<!-- N105366027811568&#45;&#45;N105366027811504 -->
<g id="edge8" class="edge">
<title>N105366027811568--N105366027811504</title>
<path fill="none" stroke="black" d="M535.76,-73.12C543.08,-61.98 552.84,-47.13 560.29,-35.8"/>
</g>
<!-- N105366027811936 -->
<g id="node11" class="node">
<title>N105366027811936</title>
<ellipse fill="none" stroke="black" cx="709.33" cy="-90" rx="27" ry="18"/>
<text xml:space="preserve" text-anchor="middle" x="709.33" y="-85.8" font-family="Times,serif" font-size="14.00">10</text>
</g>
<!-- N105366027812176&#45;&#45;N105366027811936 -->
<g id="edge10" class="edge">
<title>N105366027812176--N105366027811936</title>
<path fill="none" stroke="black" d="M709.33,-143.7C709.33,-132.85 709.33,-118.92 709.33,-108.1"/>
</g>
<!-- N105366027812560 -->
<g id="node14" class="node">
<title>N105366027812560</title>
<ellipse fill="none" stroke="black" cx="1169.33" cy="-90" rx="27" ry="18"/>
<text xml:space="preserve" text-anchor="middle" x="1169.33" y="-85.8" font-family="Times,serif" font-size="14.00">1</text>
</g>
<!-- N105366027812608&#45;&#45;N105366027812560 -->
<g id="edge13" class="edge">
<title>N105366027812608--N105366027812560</title>
<path fill="none" stroke="black" d="M1169.33,-143.7C1169.33,-132.85 1169.33,-118.92 1169.33,-108.1"/>
</g>
<!-- N105366027813088 -->
<g id="node17" class="node">
<title>N105366027813088</title>
<ellipse fill="none" stroke="black" cx="1491.33" cy="-90" rx="100.06" ry="18"/>
<text xml:space="preserve" text-anchor="middle" x="1491.33" y="-85.8" font-family="Times,serif" font-size="14.00">LoadVector int_vet ]0[</text>
</g>
<!-- N105366027813408&#45;&#45;N105366027813088 -->
<g id="edge16" class="edge">
<title>N105366027813408--N105366027813088</title>
<path fill="none" stroke="black" d="M1491.33,-143.7C1491.33,-132.85 1491.33,-118.92 1491.33,-108.1"/>
</g>
<!-- N105366027813248 -->
<g id="node18" class="node">
<title>N105366027813248</title>
<ellipse fill="none" stroke="black" cx="1491.33" cy="-18" rx="27" ry="18"/>
<text xml:space="preserve" text-anchor="middle" x="1491.33" y="-13.8" font-family="Times,serif" font-size="14.00">1</text>
</g>
<!-- N105366027813088&#45;&#45;N105366027813248 -->
<g id="edge17" class="edge">
<title>N105366027813088--N105366027813248</title>
<path fill="none" stroke="black" d="M1491.33,-71.7C1491.33,-60.85 1491.33,-46.92 1491.33,-36.1"/>
</g>
</g>
</svg>