<svg xmlns="http://www.w3.org/2000/svg" xmlns:xlink="http://www.w3.org/1999/xlink" width="2010pt" height="476pt" viewBox="0.00 0.00 2010.00 476.00">
<g id="graph0" class="graph" transform="scale(1 1) rotate(0) translate(4 472)">
<polygon fill="white" stroke="none" points="-4,4 -4,-472 2006.44,-472 2006.44,4 -4,4"/>
<!-- N140736791189896 -->
<g id="node1" class="node">
<title>N140736791189896</title>
<ellipse fill="none" stroke="black" cx="855.07" cy="-450" rx="44.29" ry="18"/>
<text xml:space="preserve" text-anchor="middle" x="855.07" y="-445.8" font-family="Times,serif" font-size="14.00">Program</text>
</g>
<!-- N110245336024608 -->
<g id="node2" class="node">
<title>N110245336024608</title>
<ellipse fill="none" stroke="black" cx="855.07" cy="-378" rx="33.04" ry="18"/>
<text xml:space="preserve" text-anchor="middle" x="855.07" y="-373.8" font-family="Times,serif" font-size="14.00">Stmts</text>
</g>
<!-- N140736791189896&#45;&#45;N110245336024608 -->
<g id="edge1" class="edge">
<title>N140736791189896--N110245336024608</title>
<path fill="none" stroke="black" d="M855.07,-431.7C855.07,-420.85 855.07,-406.92 855.07,-396.1"/>
</g>
<!-- N110245336024496 -->
<g id="node3" class="node">
<title>N110245336024496</title>
<ellipse fill="none" stroke="black" cx="78.07" cy="-306" rx="78.07" ry="18"/>
<text xml:space="preserve" text-anchor="middle" x="78.07" y="-301.8" font-family="Times,serif" font-size="14.00">DeclVar int: cont</text>
</g>
<!-- N110245336024608&#45;&#45;N110245336024496 -->
<g id="edge2" class="edge">
<title>N110245336024608--N110245336024496</title>
<path fill="none" stroke="black" d="M821.89,-375.82C722.13,-371.98 416.28,-358.07 165.07,-324 155.01,-322.63 144.35,-320.84 134.07,-318.94"/>
</g>
<!-- N110245336024976 -->
<g id="node4" class="node">
<title>N110245336024976</title>
<ellipse fill="none" stroke="black" cx="239.07" cy="-306" rx="64.94" ry="18"/>
<text xml:space="preserve" text-anchor="middle" x="239.07" y="-301.8" font-family="Times,serif" font-size="14.00">StoreVar cont</text>
</g>
<!-- N110245336024608&#45;&#45;N110245336024976 -->
<g id="edge3" class="edge">
<title>N110245336024608--N110245336024976</title>
<path fill="none" stroke="black" d="M822.2,-375.26C737.42,-370.45 504.6,-355.23 313.07,-324 304.36,-322.58 295.13,-320.74 286.27,-318.79"/>
</g>
<!-- N110245336025168 -->
<g id="node8" class="node">
<title>N110245336025168</title>
<ellipse fill="none" stroke="black" cx="425.07" cy="-306" rx="102.75" ry="18"/>
<text xml:space="preserve" text-anchor="middle" x="425.07" y="-301.8" font-family="Times,serif" font-size="14.00">DeclVar bool: var_bool</text>
</g>
<!-- N110245336024608&#45;&#45;N110245336025168 -->
<g id="edge7" class="edge">
<title>N110245336024608--N110245336025168</title>
<path fill="none" stroke="black" d="M823.46,-371.85C755.38,-360.77 593.41,-334.4 498.28,-318.92"/>
</g>
<!-- N110245336025520 -->
<g id="node9" class="node">
<title>N110245336025520</title>
<ellipse fill="none" stroke="black" cx="650.07" cy="-306" rx="103.81" ry="18"/>
<text xml:space="preserve" text-anchor="middle" x="650.07" y="-301.8" font-family="Times,serif" font-size="14.00">DeclVar float: var_float</text>
</g>
<!-- N110245336024608&#45;&#45;N110245336025520 -->
<g id="edge8" class="edge">
<title>N110245336024608--N110245336025520</title>
<path fill="none" stroke="black" d="M827.43,-367.56C793.66,-356.03 736.05,-336.36 695.68,-322.57"/>
</g>
<!-- N110245336025952 -->
<g id="node10" class="node">
<title>N110245336025952</title>
<ellipse fill="none" stroke="black" cx="855.07" cy="-306" rx="83.17" ry="18"/>
<text xml:space="preserve" text-anchor="middle" x="855.07" y="-301.8" font-family="Times,serif" font-size="14.00">StoreVar var_float</text>
</g>
<!-- N110245336024608&#45;&#45;N110245336025952 -->
<g id="edge9" class="edge">
<title>N110245336024608--N110245336025952</title>
<path fill="none" stroke="black" d="M855.07,-359.7C855.07,-348.85 855.07,-334.92 855.07,-324.1"/>
</g>
<!-- N110245336026336 -->
<g id="node14" class="node">
<title>N110245336026336</title>
<ellipse fill="none" stroke="black" cx="1051.07" cy="-306" rx="94.7" ry="18"/>
<text xml:space="preserve" text-anchor="middle" x="1051.07" y="-301.8" font-family="Times,serif" font-size="14.00">DeclVar string: nome</text>
</g>
<!-- N110245336024608&#45;&#45;N110245336026336 -->
<g id="edge13" class="edge">
<title>N110245336024608--N110245336026336</title>
<path fill="none" stroke="black" d="M882.33,-367.27C914.83,-355.66 969.56,-336.11 1007.86,-322.43"/>
</g>
<!-- N110245336027328 -->
<g id="node15" class="node">
<title>N110245336027328</title>
<ellipse fill="none" stroke="black" cx="1233.07" cy="-306" rx="69.77" ry="18"/>
<text xml:space="preserve" text-anchor="middle" x="1233.07" y="-301.8" font-family="Times,serif" font-size="14.00">StoreVar nome</text>
</g>
<!-- N110245336024608&#45;&#45;N110245336027328 -->
<g id="edge14" class="edge">
<title>N110245336024608--N110245336027328</title>
<path fill="none" stroke="black" d="M886.68,-371.84C941.46,-362.8 1057.52,-343.24 1155.07,-324 1163.64,-322.31 1172.71,-320.42 1181.53,-318.54"/>
</g>
<!-- N110245336028672 -->
<g id="node19" class="node">
<title>N110245336028672</title>
<ellipse fill="none" stroke="black" cx="1348.07" cy="-306" rx="27" ry="18"/>
<text xml:space="preserve" text-anchor="middle" x="1348.07" y="-301.8" font-family="Times,serif" font-size="14.00">IF</text>
</g>
<!-- N110245336024608&#45;&#45;N110245336028672 -->
<g id="edge18" class="edge">
<title>N110245336024608--N110245336028672</title>
<path fill="none" stroke="black" d="M888.49,-376.81C964.98,-375.59 1158.09,-368 1312.07,-324 1317.26,-322.52 1322.62,-320.36 1327.58,-318.08"/>
</g>
<!-- N110245336030624 -->
<g id="node31" class="node">
<title>N110245336030624</title>
<ellipse fill="none" stroke="black" cx="1568.07" cy="-306" rx="27" ry="18"/>
<text xml:space="preserve" text-anchor="middle" x="1568.07" y="-301.8" font-family="Times,serif" font-size="14.00">IF</text>
</g>
<!-- N110245336024608&#45;&#45;N110245336030624 -->
<g id="edge30" class="edge">
<title>N110245336024608--N110245336030624</title>
<path fill="none" stroke="black" d="M887.56,-373.81C1008.39,-361.95 1430.49,-320.51 1541.28,-309.63"/>
</g>
<!-- N110245336024784 -->
<g id="node5" class="node">
<title>N110245336024784</title>
<ellipse fill="none" stroke="black" cx="239.07" cy="-234" rx="27" ry="18"/>
<text xml:space="preserve" text-anchor="middle" x="239.07" y="-229.8" font-family="Times,serif" font-size="14.00">/</text>
</g>
<!-- N110245336024976&#45;&#45;N110245336024784 -->
<g id="edge4" class="edge">
<title>N110245336024976--N110245336024784</title>
<path fill="none" stroke="black" d="M239.07,-287.7C239.07,-276.85 239.07,-262.92 239.07,-252.1"/>
</g>
<!-- N110245336024688 -->
<g id="node6" class="node">
<title>N110245336024688</title>
<ellipse fill="none" stroke="black" cx="203.07" cy="-162" rx="27" ry="18"/>
<text xml:space="preserve" text-anchor="middle" x="203.07" y="-157.8" font-family="Times,serif" font-size="14.00">10</text>
</g>
<!-- N110245336024784&#45;&#45;N110245336024688 -->
<g id="edge5" class="edge">
<title>N110245336024784--N110245336024688</title>
<path fill="none" stroke="black" d="M230.72,-216.76C224.91,-205.46 217.18,-190.44 211.38,-179.15"/>
</g>
<!-- N110245336024736 -->
<g id="node7" class="node">
<title>N110245336024736</title>
<ellipse fill="none" stroke="black" cx="275.07" cy="-162" rx="27" ry="18"/>
<text xml:space="preserve" text-anchor="middle" x="275.07" y="-157.8" font-family="Times,serif" font-size="14.00">0</text>
</g>
<!-- N110245336024784&#45;&#45;N110245336024736 -->
<g id="edge6" class="edge">
<title>N110245336024784--N110245336024736</title>
<path fill="none" stroke="black" d="M247.42,-216.76C253.24,-205.46 260.96,-190.44 266.77,-179.15"/>
</g>
<!-- N110245336025760 -->
<g id="node11" class="node">
<title>N110245336025760</title>
<ellipse fill="none" stroke="black" cx="855.07" cy="-234" rx="27" ry="18"/>
<text xml:space="preserve" text-anchor="middle" x="855.07" y="-229.8" font-family="Times,serif" font-size="14.00">/</text>
</g>
<!-- N110245336025952&#45;&#45;N110245336025760 -->
<g id="edge10" class="edge">
<title>N110245336025952--N110245336025760</title>
<path fill="none" stroke="black" d="M855.07,-287.7C855.07,-276.85 855.07,-262.92 855.07,-252.1"/>
</g>
<!-- N110245336025632 -->
<g id="node12" class="node">
<title>N110245336025632</title>
<ellipse fill="none" stroke="black" cx="749.07" cy="-162" rx="47.25" ry="18"/>
<text xml:space="preserve" text-anchor="middle" x="749.07" y="-157.8" font-family="Times,serif" font-size="14.00">5.500000</text>
</g>
<!-- N110245336025760&#45;&#45;N110245336025632 -->
<g id="edge11" class="edge">
<title>N110245336025760--N110245336025632</title>
<path fill="none" stroke="black" d="M836.61,-220.81C818.58,-208.9 791.1,-190.75 771.75,-177.97"/>
</g>
<!-- N110245336025696 -->
<g id="node13" class="node">
<title>N110245336025696</title>
<ellipse fill="none" stroke="black" cx="862.07" cy="-162" rx="47.25" ry="18"/>
<text xml:space="preserve" text-anchor="middle" x="862.07" y="-157.8" font-family="Times,serif" font-size="14.00">0.000000</text>
</g>
<!-- N110245336025760&#45;&#45;N110245336025696 -->
<g id="edge12" class="edge">
<title>N110245336025760--N110245336025696</title>
<path fill="none" stroke="black" d="M856.8,-215.7C857.89,-204.85 859.28,-190.92 860.36,-180.1"/>
</g>
<!-- N110245336025280 -->
<g id="node16" class="node">
<title>N110245336025280</title>
<ellipse fill="none" stroke="black" cx="1052.07" cy="-234" rx="27" ry="18"/>
<text xml:space="preserve" text-anchor="middle" x="1052.07" y="-229.8" font-family="Times,serif" font-size="14.00">-</text>
</g>
<!-- N110245336027328&#45;&#45;N110245336025280 -->
<g id="edge15" class="edge">
<title>N110245336027328--N110245336025280</title>
<path fill="none" stroke="black" d="M1195.57,-290.5C1159.33,-276.48 1105.58,-255.69 1075.2,-243.94"/>
</g>
<!-- N110245336026720 -->
<g id="node17" class="node">
<title>N110245336026720</title>
<ellipse fill="none" stroke="black" cx="968.07" cy="-162" rx="27" ry="18"/>
<text xml:space="preserve" text-anchor="middle" x="968.07" y="-157.8" font-family="Times,serif" font-size="14.00">Ola</text>
</g>
<!-- N110245336025280&#45;&#45;N110245336026720 -->
<g id="edge16" class="edge">
<title>N110245336025280--N110245336026720</title>
<path fill="none" stroke="black" d="M1035.88,-219.5C1021.1,-207.19 999.36,-189.07 984.51,-176.69"/>
</g>
<!-- N110245336027072 -->
<g id="node18" class="node">
<title>N110245336027072</title>
<ellipse fill="none" stroke="black" cx="1052.07" cy="-162" rx="38.94" ry="18"/>
<text xml:space="preserve" text-anchor="middle" x="1052.07" y="-157.8" font-family="Times,serif" font-size="14.00">Mundo</text>
</g>
<!-- N110245336025280&#45;&#45;N110245336027072 -->
<g id="edge17" class="edge">
<title>N110245336025280--N110245336027072</title>
<path fill="none" stroke="black" d="M1052.07,-215.7C1052.07,-204.85 1052.07,-190.92 1052.07,-180.1"/>
</g>
<!-- N110245336028720 -->
<g id="node20" class="node">
<title>N110245336028720</title>
<ellipse fill="none" stroke="black" cx="1233.07" cy="-234" rx="49.67" ry="18"/>
<text xml:space="preserve" text-anchor="middle" x="1233.07" y="-229.8" font-family="Times,serif" font-size="14.00">Condition</text>
</g>
<!-- N110245336028672&#45;&#45;N110245336028720 -->
<g id="edge19" class="edge">
<title>N110245336028672--N110245336028720</title>
<path fill="none" stroke="black" d="M1328.57,-293.13C1308.96,-281.19 1278.68,-262.76 1257.49,-249.86"/>
</g>
<!-- N110245336028800 -->
<g id="node24" class="node">
<title>N110245336028800</title>
<ellipse fill="none" stroke="black" cx="1366.07" cy="-234" rx="52.33" ry="18"/>
<text xml:space="preserve" text-anchor="middle" x="1366.07" y="-229.8" font-family="Times,serif" font-size="14.00">TrueBlock</text>
</g>
<!-- N110245336028672&#45;&#45;N110245336028800 -->
<g id="edge23" class="edge">
<title>N110245336028672--N110245336028800</title>
<path fill="none" stroke="black" d="M1352.43,-288.05C1355.22,-277.21 1358.83,-263.18 1361.63,-252.28"/>
</g>
<!-- N110245336027808 -->
<g id="node21" class="node">
<title>N110245336027808</title>
<ellipse fill="none" stroke="black" cx="1221.07" cy="-162" rx="112.15" ry="18"/>
<text xml:space="preserve" text-anchor="middle" x="1221.07" y="-157.8" font-family="Times,serif" font-size="14.00">Compare [MAIOR_QUE]</text>
</g>
<!-- N110245336028720&#45;&#45;N110245336027808 -->
<g id="edge20" class="edge">
<title>N110245336028720--N110245336027808</title>
<path fill="none" stroke="black" d="M1230.11,-215.7C1228.25,-204.85 1225.86,-190.92 1224.01,-180.1"/>
</g>
<!-- N110245336027680 -->
<g id="node22" class="node">
<title>N110245336027680</title>
<ellipse fill="none" stroke="black" cx="1163.07" cy="-90" rx="50.19" ry="18"/>
<text xml:space="preserve" text-anchor="middle" x="1163.07" y="-85.8" font-family="Times,serif" font-size="14.00">var_string</text>
</g>
<!-- N110245336027808&#45;&#45;N110245336027680 -->
<g id="edge21" class="edge">
<title>N110245336027808--N110245336027680</title>
<path fill="none" stroke="black" d="M1206.74,-143.7C1197.61,-132.68 1185.86,-118.5 1176.85,-107.62"/>
</g>
<!-- N110245336027760 -->
<g id="node23" class="node">
<title>N110245336027760</title>
<ellipse fill="none" stroke="black" cx="1258.07" cy="-90" rx="27" ry="18"/>
<text xml:space="preserve" text-anchor="middle" x="1258.07" y="-85.8" font-family="Times,serif" font-size="14.00">10</text>
</g>
<!-- N110245336027808&#45;&#45;N110245336027760 -->
<g id="edge22" class="edge">
<title>N110245336027808--N110245336027760</title>
<path fill="none" stroke="black" d="M1230.22,-143.7C1236.13,-132.52 1243.76,-118.08 1249.54,-107.14"/>
</g>
<!-- N110245336028624 -->
<g id="node25" class="node">
<title>N110245336028624</title>
<ellipse fill="none" stroke="black" cx="1384.07" cy="-162" rx="33.04" ry="18"/>
<text xml:space="preserve" text-anchor="middle" x="1384.07" y="-157.8" font-family="Times,serif" font-size="14.00">Stmts</text>
</g>
<!-- N110245336028800&#45;&#45;N110245336028624 -->
<g id="edge24" class="edge">
<title>N110245336028800--N110245336028624</title>
<path fill="none" stroke="black" d="M1370.52,-215.7C1373.31,-204.85 1376.9,-190.92 1379.68,-180.1"/>
</g>
<!-- N110245336028464 -->
<g id="node26" class="node">
<title>N110245336028464</title>
<ellipse fill="none" stroke="black" cx="1373.07" cy="-90" rx="33.04" ry="18"/>
<text xml:space="preserve" text-anchor="middle" x="1373.07" y="-85.8" font-family="Times,serif" font-size="14.00">Show</text>
</g>
<!-- N110245336028624&#45;&#45;N110245336028464 -->
<g id="edge25" class="edge">
<title>N110245336028624--N110245336028464</title>
<path fill="none" stroke="black" d="M1381.35,-143.7C1379.65,-132.85 1377.46,-118.92 1375.76,-108.1"/>
</g>
<!-- N110245336027952 -->
<g id="node27" class="node">
<title>N110245336027952</title>
<ellipse fill="none" stroke="black" cx="1242.07" cy="-18" rx="27" ry="18"/>
<text xml:space="preserve" text-anchor="middle" x="1242.07" y="-13.8" font-family="Times,serif" font-size="14.00">Isso</text>
</g>
<!-- N110245336028464&#45;&#45;N110245336027952 -->
<g id="edge26" class="edge">
<title>N110245336028464--N110245336027952</title>
<path fill="none" stroke="black" d="M1349.96,-76.65C1325.28,-63.46 1286.53,-42.75 1262.8,-30.08"/>
</g>
<!-- N110245336028144 -->
<g id="node28" class="node">
<title>N110245336028144</title>
<ellipse fill="none" stroke="black" cx="1314.07" cy="-18" rx="27" ry="18"/>
<text xml:space="preserve" text-anchor="middle" x="1314.07" y="-13.8" font-family="Times,serif" font-size="14.00">nao</text>
</g>
<!-- N110245336028464&#45;&#45;N110245336028144 -->
<g id="edge27" class="edge">
<title>N110245336028464--N110245336028144</title>
<path fill="none" stroke="black" d="M1359.69,-73.12C1349.76,-61.34 1336.32,-45.39 1326.6,-33.86"/>
</g>
<!-- N110245336028256 -->
<g id="node29" class="node">
<title>N110245336028256</title>
<ellipse fill="none" stroke="black" cx="1388.07" cy="-18" rx="29.27" ry="18"/>
<text xml:space="preserve" text-anchor="middle" x="1388.07" y="-13.8" font-family="Times,serif" font-size="14.00">deve</text>
</g>
<!-- N110245336028464&#45;&#45;N110245336028256 -->
<g id="edge28" class="edge">
<title>N110245336028464--N110245336028256</title>
<path fill="none" stroke="black" d="M1376.78,-71.7C1379.11,-60.85 1382.09,-46.92 1384.41,-36.1"/>
</g>
<!-- N110245336028384 -->
<g id="node30" class="node">
<title>N110245336028384</title>
<ellipse fill="none" stroke="black" cx="1467.07" cy="-18" rx="31.41" ry="18"/>
<text xml:space="preserve" text-anchor="middle" x="1467.07" y="-13.8" font-family="Times,serif" font-size="14.00">rodar</text>
</g>
<!-- N110245336028464&#45;&#45;N110245336028384 -->
<g id="edge29" class="edge">
<title>N110245336028464--N110245336028384</title>
<path fill="none" stroke="black" d="M1392.1,-74.83C1408.51,-62.61 1432.09,-45.05 1448.4,-32.91"/>
</g>
<!-- N110245336030672 -->
<g id="node32" class="node">
<title>N110245336030672</title>
<ellipse fill="none" stroke="black" cx="1568.07" cy="-234" rx="49.67" ry="18"/>
<text xml:space="preserve" text-anchor="middle" x="1568.07" y="-229.8" font-family="Times,serif" font-size="14.00">Condition</text>
</g>
<!-- N110245336030624&#45;&#45;N110245336030672 -->
<g id="edge31" class="edge">
<title>N110245336030624--N110245336030672</title>
<path fill="none" stroke="black" d="M1568.07,-287.7C1568.07,-276.85 1568.07,-262.92 1568.07,-252.1"/>
</g>
<!-- N110245336030752 -->
<g id="node37" class="node">
<title>N110245336030752</title>
<ellipse fill="none" stroke="black" cx="1719.07" cy="-234" rx="52.33" ry="18"/>
<text xml:space="preserve" text-anchor="middle" x="1719.07" y="-229.8" font-family="Times,serif" font-size="14.00">TrueBlock</text>
</g>
<!-- N110245336030624&#45;&#45;N110245336030752 -->
<g id="edge36" class="edge">
<title>N110245336030624--N110245336030752</title>
<path fill="none" stroke="black" d="M1589.71,-294.97C1615.72,-282.91 1659.54,-262.6 1688.88,-249"/>
</g>
<!-- N110245336029440 -->
<g id="node33" class="node">
<title>N110245336029440</title>
<ellipse fill="none" stroke="black" cx="1568.07" cy="-162" rx="112.15" ry="18"/>
<text xml:space="preserve" text-anchor="middle" x="1568.07" y="-157.8" font-family="Times,serif" font-size="14.00">Compare [MAIOR_QUE]</text>
</g>
<!-- N110245336030672&#45;&#45;N110245336029440 -->
<g id="edge32" class="edge">
<title>N110245336030672--N110245336029440</title>
<path fill="none" stroke="black" d="M1568.07,-215.7C1568.07,-204.85 1568.07,-190.92 1568.07,-180.1"/>
</g>
<!-- N110245336028912 -->
<g id="node34" class="node">
<title>N110245336028912</title>
<ellipse fill="none" stroke="black" cx="1451.07" cy="-90" rx="27" ry="18"/>
<text xml:space="preserve" text-anchor="middle" x="1451.07" y="-85.8" font-family="Times,serif" font-size="14.00">10</text>
</g>
<!-- N110245336029440&#45;&#45;N110245336028912 -->
<g id="edge33" class="edge">
<title>N110245336029440--N110245336028912</title>
<path fill="none" stroke="black" d="M1540.05,-144.23C1518.69,-131.45 1489.8,-114.17 1470.82,-102.81"/>
</g>
<!-- N110245336029200 -->
<g id="node35" class="node">
<title>N110245336029200</title>
<ellipse fill="none" stroke="black" cx="1579.07" cy="-90" rx="82.62" ry="18"/>
<text xml:space="preserve" text-anchor="middle" x="1579.07" y="-85.8" font-family="Times,serif" font-size="14.00">LoadVar var_float</text>
</g>
<!-- N110245336029440&#45;&#45;N110245336029200 -->
<g id="edge34" class="edge">
<title>N110245336029440--N110245336029200</title>
<path fill="none" stroke="black" d="M1570.79,-143.7C1572.5,-132.85 1574.69,-118.92 1576.39,-108.1"/>
</g>
<!-- N110245336029344 -->
<g id="node36" class="node">
<title>N110245336029344</title>
<ellipse fill="none" stroke="black" cx="1579.07" cy="-18" rx="47.25" ry="18"/>
<text xml:space="preserve" text-anchor="middle" x="1579.07" y="-13.8" font-family="Times,serif" font-size="14.00">0.000000</text>
</g>
<!-- N110245336029200&#45;&#45;N110245336029344 -->
<g id="edge35" class="edge">
<title>N110245336029200--N110245336029344</title>
<path fill="none" stroke="black" d="M1579.07,-71.7C1579.07,-60.85 1579.07,-46.92 1579.07,-36.1"/>
</g>
<!-- N110245336030128 -->
<g id="node38" class="node">
<title>N110245336030128</title>
<ellipse fill="none" stroke="black" cx="1762.07" cy="-162" rx="33.04" ry="18"/>
<text xml:space="preserve" text-anchor="middle" x="1762.07" y="-157.8" font-family="Times,serif" font-size="14.00">Stmts</text>
</g>
<!-- N110245336030752&#45;&#45;N110245336030128 -->
<g id="edge37" class="edge">
<title>N110245336030752--N110245336030128</title>
<path fill="none" stroke="black" d="M1729.48,-216.05C1736.34,-204.89 1745.28,-190.34 1752.06,-179.31"/>
</g>
<!-- N110245336029936 -->
<g id="node39" class="node">
<title>N110245336029936</title>
<ellipse fill="none" stroke="black" cx="1762.07" cy="-90" rx="82.64" ry="18"/>
<text xml:space="preserve" text-anchor="middle" x="1762.07" y="-85.8" font-family="Times,serif" font-size="14.00">StoreVar var_bool</text>
</g>
<!-- N110245336030128&#45;&#45;N110245336029936 -->
<g id="edge38" class="edge">
<title>N110245336030128--N110245336029936</title>
<path fill="none" stroke="black" d="M1762.07,-143.7C1762.07,-132.85 1762.07,-118.92 1762.07,-108.1"/>
</g>
<!-- N110245336030544 -->
<g id="node41" class="node">
<title>N110245336030544</title>
<ellipse fill="none" stroke="black" cx="1896.07" cy="-90" rx="33.04" ry="18"/>
<text xml:space="preserve" text-anchor="middle" x="1896.07" y="-85.8" font-family="Times,serif" font-size="14.00">Show</text>
</g>
<!-- N110245336030128&#45;&#45;N110245336030544 -->
<g id="edge40" class="edge">
<title>N110245336030128--N110245336030544</title>
<path fill="none" stroke="black" d="M1785.42,-148.81C1810.01,-135.96 1848.51,-115.85 1873,-103.05"/>
</g>
<!-- N110245336029856 -->
<g id="node40" class="node">
<title>N110245336029856</title>
<ellipse fill="none" stroke="black" cx="1762.07" cy="-18" rx="27" ry="18"/>
<text xml:space="preserve" text-anchor="middle" x="1762.07" y="-13.8" font-family="Times,serif" font-size="14.00">true</text>
</g>
<!-- N110245336029936&#45;&#45;N110245336029856 -->
<g id="edge39" class="edge">
<title>N110245336029936--N110245336029856</title>
<path fill="none" stroke="black" d="M1762.07,-71.7C1762.07,-60.85 1762.07,-46.92 1762.07,-36.1"/>
</g>
<!-- N110245336030240 -->
<g id="node42" class="node">
<title>N110245336030240</title>
<ellipse fill="none" stroke="black" cx="1865.07" cy="-18" rx="28.2" ry="18"/>
<text xml:space="preserve" text-anchor="middle" x="1865.07" y="-13.8" font-family="Times,serif" font-size="14.00">Erro</text>
</g>
<!-- N110245336030544&#45;&#45;N110245336030240 -->
<g id="edge41" class="edge">
<title>N110245336030544--N110245336030240</title>
<path fill="none" stroke="black" d="M1888.57,-72.05C1883.7,-61.05 1877.37,-46.76 1872.51,-35.79"/>
</g>
<!-- N110245336030432 -->
<g id="node43" class="node">
<title>N110245336030432</title>
<ellipse fill="none" stroke="black" cx="1957.07" cy="-18" rx="45.36" ry="18"/>
<text xml:space="preserve" text-anchor="middle" x="1957.07" y="-13.8" font-family="Times,serif" font-size="14.00">var_bool</text>
</g>
<!-- N110245336030544&#45;&#45;N110245336030432 -->
<g id="edge42" class="edge">
<title>N110245336030544--N110245336030432</title>
<path fill="none" stroke="black" d="M1909.61,-73.46C1919.44,-62.19 1932.71,-46.96 1942.72,-35.47"/>
</g>
</g>
</svg>